<?xml version="1.0" encoding="UTF-8" standalone="no"?>
<svg
   xmlns:dc="http://purl.org/dc/elements/1.1/"
   xmlns:cc="http://creativecommons.org/ns#"
   xmlns:rdf="http://www.w3.org/1999/02/22-rdf-syntax-ns#"
   xmlns:svg="http://www.w3.org/2000/svg"
   xmlns="http://www.w3.org/2000/svg"
   xmlns:sodipodi="http://sodipodi.sourceforge.net/DTD/sodipodi-0.dtd"
   xmlns:inkscape="http://www.inkscape.org/namespaces/inkscape"
   enable-background="new 0 0 55 55"
   height="55px"
   version="1.1"
   viewBox="0 0 55 55"
   width="55px"
   x="0px"
   xml:space="preserve"
   y="0px"
   id="svg3050"
   inkscape:version="0.48.4 r9939"
   sodipodi:docname="compressed.svg"><metadata
     id="metadata3071"><rdf:RDF><cc:Work
         rdf:about=""><dc:format>image/svg+xml</dc:format><dc:type
           rdf:resource="http://purl.org/dc/dcmitype/StillImage" /><dc:title /></cc:Work></rdf:RDF></metadata><defs
     id="defs3069" /><sodipodi:namedview
     pagecolor="#ffffff"
     bordercolor="#666666"
     borderopacity="1"
     objecttolerance="10"
     gridtolerance="10"
     guidetolerance="10"
     inkscape:pageopacity="0"
     inkscape:pageshadow="2"
     inkscape:window-width="1366"
     inkscape:window-height="707"
     id="namedview3067"
     showgrid="false"
     inkscape:zoom="5.6568542"
     inkscape:cx="13.441559"
     inkscape:cy="27.546609"
     inkscape:window-x="0"
     inkscape:window-y="0"
     inkscape:window-maximized="1"
     inkscape:current-layer="svg3050" /><rect
     style="fill:#000000;fill-opacity:1"
     id="rect3086"
     width="36.524017"
     height="3.8222809"
     x="5.457725"
     y="19.650047" /><rect
     y="-7.7935638"
     x="19.650047"
     height="3.8222809"
     width="29.728853"
     id="rect3088"
     style="fill:#000000;fill-opacity:1"
     transform="matrix(0,1,-1,0,0,0)"
     inkscape:transform-center-y="14.864426" /><rect
     y="45.556622"
     x="5.457725"
     height="3.8222809"
     width="36.524017"
     id="rect2991"
     style="fill:#000000;fill-opacity:1" /><rect
     inkscape:transform-center-y="14.864426"
     transform="matrix(0,1,-1,0,0,0)"
     style="fill:#000000;fill-opacity:1"
     id="rect2993"
     width="29.728853"
     height="3.8222809"
     x="19.650047"
     y="-42.021709" /><rect
     inkscape:transform-center-y="-3.3565009"
     transform="matrix(0.76689995,-0.64176667,0.64176667,0.76689995,0,0)"
     style="fill:#000000;fill-opacity:1"
     id="rect3009"
     width="10.460194"
     height="3.8222809"
     x="-9.5678978"
     y="17.620935"
     inkscape:transform-center-x="-4.0109611" /><rect
     inkscape:transform-center-x="-4.0109611"
     y="40.499416"
     x="16.394217"
     height="3.8222809"
     width="10.460194"
     id="rect3011"
     style="fill:#000000;fill-opacity:1"
     transform="matrix(0.76689995,-0.64176667,0.64176667,0.76689995,0,0)"
     inkscape:transform-center-y="-3.3565009" /><rect
     y="12.932533"
     x="11.998463"
     height="3.8222809"
     width="37.054348"
     id="rect3013"
     style="fill:#000000;fill-opacity:1;stroke:none" /><rect
     y="-50.054855"
     x="12.925936"
     height="3.8222809"
     width="29.728853"
     id="rect3015"
     style="fill:#000000;fill-opacity:1"
     transform="matrix(0,1,-1,0,0,0)"
     inkscape:transform-center-y="14.864426" /><rect
     inkscape:transform-center-y="-3.3565009"
     transform="matrix(0.76689995,-0.64176667,0.64176667,0.76689995,0,0)"
     style="fill:#000000;fill-opacity:1"
     id="rect3017"
     width="10.460194"
     height="3.8222809"
     x="0.53772563"
     y="61.014023"
     inkscape:transform-center-x="-4.0109611" /><rect
     inkscape:transform-center-y="-3.1137721"
     transform="matrix(0.71716338,-0.69690508,0.67227098,0.74030516,0,0)"
     style="fill:#000000;fill-opacity:1"
     id="rect3019"
     width="8.9360065"
     height="1.7827625"
     x="2.1582694"
     y="30.680279"
     inkscape:transform-center-x="-3.2042891" /><rect
     style="fill:#000000;fill-opacity:1"
     id="rect2992"
     width="0"
     height="0"
     x="0"
     y="0" /><path
     style="fill:#ffffff;fill-opacity:1"
     d="m 7.6432831,34.524458 0,-11.136932 15.2911839,0 15.291185,0 0,11.136932 0,11.136932 -15.291185,0 -15.2911839,0 0,-11.136932 z"
     id="path2994"
     inkscape:connector-curvature="0" /><path
     style="fill:#ffffff;fill-opacity:1"
     d="m 9.9413799,19.596718 c 0,-0.04317 0.7249431,-0.719344 1.6109811,-1.502602 l 1.610983,-1.424104 7.090846,0 7.090846,0 -1.433459,1.502602 -1.433459,1.502602 -7.268369,0 c -3.997603,0 -7.2683691,-0.03533 -7.2683691,-0.0785 z"
     id="path2996"
     inkscape:connector-curvature="0" /><path
     style="fill:#ffffff;fill-opacity:1"
     d="m 27.85933,18.170449 1.386477,-1.504768 6.994767,0.05254 6.994767,0.05252 -1.589087,1.452237 -1.589088,1.452237 -6.792156,0 -6.792158,0 1.386478,-1.504767 z"
     id="path2998"
     inkscape:connector-curvature="0" /><path
     style="fill:#ffffff;fill-opacity:1"
     d="m 41.937962,33.626384 0,-10.999891 1.706279,-1.408084 c 0.938455,-0.774445 1.893048,-1.571674 2.121321,-1.771617 l 0.415041,-0.363536 -0.0033,11.079087 -0.0033,11.079086 -1.782594,1.454801 c -0.980426,0.800139 -1.933501,1.56173 -2.117944,1.692423 -0.32312,0.228957 -0.335351,-0.163564 -0.335351,-10.762269 z"
     id="path3000"
     inkscape:connector-curvature="0" /></svg>