<?xml version="1.0" encoding="UTF-8" standalone="no"?>
<svg
   xmlns:dc="http://purl.org/dc/elements/1.1/"
   xmlns:cc="http://creativecommons.org/ns#"
   xmlns:rdf="http://www.w3.org/1999/02/22-rdf-syntax-ns#"
   xmlns:svg="http://www.w3.org/2000/svg"
   xmlns="http://www.w3.org/2000/svg"
   xmlns:sodipodi="http://sodipodi.sourceforge.net/DTD/sodipodi-0.dtd"
   xmlns:inkscape="http://www.inkscape.org/namespaces/inkscape"
   enable-background="new 0 0 55 55"
   height="55px"
   version="1.1"
   viewBox="0 0 55 55"
   width="55px"
   x="0px"
   xml:space="preserve"
   y="0px"
   id="svg2"
   inkscape:version="0.48.4 r9939"
   sodipodi:docname="plain.svg"><metadata
     id="metadata23"><rdf:RDF><cc:Work
         rdf:about=""><dc:format>image/svg+xml</dc:format><dc:type
           rdf:resource="http://purl.org/dc/dcmitype/StillImage" /><dc:title></dc:title></cc:Work></rdf:RDF></metadata><defs
     id="defs21" /><sodipodi:namedview
     pagecolor="#ffffff"
     bordercolor="#666666"
     borderopacity="1"
     objecttolerance="10"
     gridtolerance="10"
     guidetolerance="10"
     inkscape:pageopacity="0"
     inkscape:pageshadow="2"
     inkscape:window-width="1366"
     inkscape:window-height="707"
     id="namedview19"
     showgrid="false"
     inkscape:zoom="17.163636"
     inkscape:cx="35.102767"
     inkscape:cy="36.302815"
     inkscape:window-x="0"
     inkscape:window-y="0"
     inkscape:window-maximized="1"
     inkscape:current-layer="svg2" /><polygon
     style="fill:#ffffff;stroke:#000000;stroke-width:3.50000000000000000"
     id="polygon9"
     points="31.874,6.088 43.818,18.027 43.818,48.914 10.932,48.914 10.932,6.088 " /><polyline
     style="fill:none;stroke:#000000;stroke-width:3.50000000000000000"
     id="polyline11"
     points="43.818,18.027 31.874,18.027 31.874,6.088    "
     transform="translate(-1.1652542,1.3983051)" /><polygon
     style="fill:#000000;stroke:#000000"
     points="17.238,16.369 14.659,4.975 20.555,2.531 26.891,12.363 "
     id="polygon3017"
     transform="matrix(0.41271186,0,0,0.41271186,15.687211,21.519768)" /><polygon
     style="fill:#000000;stroke:#000000"
     points="38.649,17.228 50.04,14.654 52.477,20.55 42.646,26.88 "
     id="polygon3019"
     transform="matrix(0.41271186,0,0,0.41271186,15.687211,21.519768)" /><polygon
     style="fill:#000000;stroke:#000000"
     points="37.775,38.645 40.349,50.029 34.453,52.471 28.117,42.645 "
     id="polygon3021"
     transform="matrix(0.41271186,0,0,0.41271186,15.687211,21.519768)" /><polygon
     style="fill:#000000;stroke:#000000"
     points="28.171,12.309 34.394,2.439 40.295,4.882 37.824,16.315 "
     id="polygon3023"
     transform="matrix(0.41271186,0,0,0.41271186,15.687211,21.519768)" /><polygon
     style="fill:#000000;stroke:#000000"
     points="42.623,28.139 52.493,34.365 50.055,40.258 38.628,37.791 "
     id="polygon3025"
     transform="matrix(0.41271186,0,0,0.41271186,15.687211,21.519768)" /><polygon
     style="fill:#000000;stroke:#000000"
     points="12.391,28.105 2.515,34.34 4.953,40.234 16.385,37.76 "
     id="polygon3027"
     transform="matrix(0.41271186,0,0,0.41271186,15.687211,21.519768)" /><polygon
     style="fill:#000000;stroke:#000000"
     points="16.32,17.216 4.936,14.643 2.493,20.539 12.319,26.875 "
     id="polygon3029"
     transform="matrix(0.41271186,0,0,0.41271186,15.687211,21.519768)" /><polygon
     style="fill:#000000;stroke:#000000"
     points="17.287,38.629 14.719,50.018 20.609,52.461 26.939,42.623 "
     id="polygon3031"
     transform="matrix(0.41271186,0,0,0.41271186,15.687211,21.519768)" /><path
     style="fill:#ffffff;stroke:#000000;stroke-width:4.82641745000000011"
     inkscape:connector-curvature="0"
     d="m 32.164732,30.744703 c 1.174165,2.832442 -0.170037,6.078421 -3.002066,7.252999 -2.834092,1.176229 -6.080897,-0.172514 -7.254649,-3.004955 -1.172102,-2.832029 0.172513,-6.080484 3.004129,-7.252173 2.832029,-1.174165 6.080897,0.172101 7.252586,3.004129 z"
     id="path3033" /></svg>