<?xml version="1.0" encoding="UTF-8" standalone="no"?>
<svg
   xmlns:dc="http://purl.org/dc/elements/1.1/"
   xmlns:cc="http://creativecommons.org/ns#"
   xmlns:rdf="http://www.w3.org/1999/02/22-rdf-syntax-ns#"
   xmlns:svg="http://www.w3.org/2000/svg"
   xmlns="http://www.w3.org/2000/svg"
   xmlns:sodipodi="http://sodipodi.sourceforge.net/DTD/sodipodi-0.dtd"
   xmlns:inkscape="http://www.inkscape.org/namespaces/inkscape"
   height="55px"
   viewBox="0 0 55 55"
   width="55px"
   id="svg2"
   version="1.1"
   inkscape:version="0.48.4 r9939"
   sodipodi:docname="folder.svg">
  <metadata
     id="metadata18">
    <rdf:RDF>
      <cc:Work
         rdf:about="">
        <dc:format>image/svg+xml</dc:format>
        <dc:type
           rdf:resource="http://purl.org/dc/dcmitype/StillImage" />
        <dc:title></dc:title>
      </cc:Work>
    </rdf:RDF>
  </metadata>
  <defs
     id="defs16" />
  <sodipodi:namedview
     pagecolor="#ffffff"
     bordercolor="#666666"
     borderopacity="1"
     objecttolerance="10"
     gridtolerance="10"
     guidetolerance="10"
     inkscape:pageopacity="0"
     inkscape:pageshadow="2"
     inkscape:window-width="1366"
     inkscape:window-height="707"
     id="namedview14"
     showgrid="false"
     inkscape:zoom="12.136524"
     inkscape:cx="26.313831"
     inkscape:cy="27.591292"
     inkscape:window-x="0"
     inkscape:window-y="0"
     inkscape:window-maximized="1"
     inkscape:current-layer="svg2" />
  <path
     d="m 7,14 5,-5 10,0 5,5 20,0 0,31 -40,0 z"
     style="fill:#ffffff;stroke:#000000;stroke-width:3;stroke-linecap:round;stroke-linejoin:round"
     id="path4" />
  <rect
     height="19.403109"
     id="rect4"
     width="23.714911"
     x="14.830974"
     y="21.33144"
     style="fill:#ffffff;stroke:#000000" />
  <polyline
     id="polyline6"
     points="15,7 25,1 35,7"
     style="fill:none;stroke:#000000"
     transform="matrix(0.53897524,0,0,0.53897524,13.214048,17.558613)" />
  <circle
     d="m 18.5,19 c 0,2.485281 -2.014719,4.5 -4.5,4.5 -2.485281,0 -4.5,-2.014719 -4.5,-4.5 0,-2.485281 2.014719,-4.5 4.5,-4.5 2.485281,0 4.5,2.014719 4.5,4.5 z"
     sodipodi:ry="4.5"
     sodipodi:rx="4.5"
     sodipodi:cy="19"
     sodipodi:cx="14"
     cx="14"
     cy="19"
     id="circle8"
     r="4.5"
     transform="matrix(0.53897524,0,0,0.53897524,13.214048,17.558613)" />
  <polyline
     id="polyline10"
     points="3,36 16,32 26,35"
     style="fill:#ffffff;stroke:#000000"
     transform="matrix(0.53850344,0,0,0.74225218,13.262087,11.100375)" />
  <polyline
     id="polyline12"
     points="15,43 37,28 47,34 47,43"
     transform="matrix(0.53897524,0,0,0.53897524,13.214048,17.558613)"
     style="fill:#000000" />
  <polyline
     id="polyline14"
     points="22,41.5 35,30 27,41.5"
     transform="matrix(0.53897524,0,0,0.53897524,13.214048,17.558613)"
     style="fill:#ffffff" />
  <polyline
     id="polyline16"
     points="26,23 28,25 30,23"
     style="fill:none;stroke:#000000"
     transform="matrix(0.53897524,0,0,0.53897524,13.214048,17.558613)" />
  <polyline
     id="polyline18"
     points="31.2,20 33.5,17.7 35.8,20"
     style="fill:none;stroke:#000000"
     transform="matrix(0.53897524,0,0,0.53897524,13.214048,17.558613)" />
  <polyline
     id="polyline20"
     points="36,13 38.5,15.5 41,13"
     style="fill:none;stroke:#000000"
     transform="matrix(0.53897524,0,0,0.53897524,13.214048,17.558613)" />
</svg>
