<?xml version="1.0" encoding="UTF-8" standalone="no"?>
<svg
   xmlns:dc="http://purl.org/dc/elements/1.1/"
   xmlns:cc="http://creativecommons.org/ns#"
   xmlns:rdf="http://www.w3.org/1999/02/22-rdf-syntax-ns#"
   xmlns:svg="http://www.w3.org/2000/svg"
   xmlns="http://www.w3.org/2000/svg"
   xmlns:sodipodi="http://sodipodi.sourceforge.net/DTD/sodipodi-0.dtd"
   xmlns:inkscape="http://www.inkscape.org/namespaces/inkscape"
   height="55px"
   viewBox="0 0 55 55"
   width="55px"
   id="svg2"
   version="1.1"
   inkscape:version="0.48.4 r9939"
   sodipodi:docname="directory.svg">
  <metadata
     id="metadata18">
    <rdf:RDF>
      <cc:Work
         rdf:about="">
        <dc:format>image/svg+xml</dc:format>
        <dc:type
           rdf:resource="http://purl.org/dc/dcmitype/StillImage" />
        <dc:title></dc:title>
      </cc:Work>
    </rdf:RDF>
  </metadata>
  <defs
     id="defs16" />
  <sodipodi:namedview
     pagecolor="#ffffff"
     bordercolor="#666666"
     borderopacity="1"
     objecttolerance="10"
     gridtolerance="10"
     guidetolerance="10"
     inkscape:pageopacity="0"
     inkscape:pageshadow="2"
     inkscape:window-width="1366"
     inkscape:window-height="707"
     id="namedview14"
     showgrid="false"
     inkscape:zoom="12.136524"
     inkscape:cx="26.313831"
     inkscape:cy="27.591292"
     inkscape:window-x="0"
     inkscape:window-y="0"
     inkscape:window-maximized="1"
     inkscape:current-layer="svg2" />
  <path
     d="m 7,14 5,-5 10,0 5,5 20,0 0,31 -40,0 z"
     style="fill:#ffffff;stroke:#000000;stroke-width:3;stroke-linecap:round;stroke-linejoin:round"
     id="path4" />
  <g
     id="g3070"
     transform="matrix(0.20165318,0,0,0.20165318,21.480296,23.829105)">
    <path
       d="m 33.359,35.101 10.101,10.1 c 0.752,0.75 1.217,1.784 1.217,2.932 0,2.287 -1.855,4.143 -4.146,4.143 -1.145,0 -2.178,-0.463 -2.932,-1.211 l -10.101,-10.102 -10.1,10.1 c -0.75,0.75 -1.787,1.211 -2.933,1.211 -2.285,0 -4.143,-1.854 -4.143,-4.141 0,-1.146 0.465,-2.184 1.212,-2.934 L 21.638,35.098 11.535,24.997 c -0.747,-0.749 -1.212,-1.785 -1.212,-2.93 0,-2.289 1.854,-4.145 4.146,-4.145 1.143,0 2.18,0.465 2.93,1.214 L 27.498,29.237 37.599,19.135 c 0.754,-0.749 1.787,-1.214 2.934,-1.214 2.289,0 4.146,1.856 4.146,4.145 0,1.145 -0.467,2.179 -1.217,2.93 L 33.359,35.101 z"
       id="path4-1"
       inkscape:connector-curvature="0"
       style="fill:#ffffff;stroke:#000000;stroke-width:3.5" />
    <circle
       cx="27.497"
       cy="10.849"
       r="8.1219997"
       id="circle6"
       sodipodi:cx="27.497"
       sodipodi:cy="10.849"
       sodipodi:rx="8.1219997"
       sodipodi:ry="8.1219997"
       style="fill:#ffffff;stroke:#000000;stroke-width:3.5"
       d="m 35.618999,10.849 c 0,4.485657 -3.636343,8.122 -8.121999,8.122 -4.485657,0 -8.122,-3.636343 -8.122,-8.122 0,-4.4856566 3.636343,-8.1219998 8.122,-8.1219998 4.485656,0 8.121999,3.6363432 8.121999,8.1219998 z" />
  </g>
  <rect
     style="fill:#ffffff;fill-opacity:1;stroke:#000000;stroke-width:0.37390316"
     id="rect3074"
     width="4.7752547"
     height="4.2515168"
     x="24.92662"
     y="16.867224"
     ry="0.92424285" />
  <rect
     ry="0.92424285"
     y="20.327852"
     x="32.589436"
     height="4.2515168"
     width="4.7752547"
     id="rect3076"
     style="fill:#ffffff;fill-opacity:1;stroke:#000000;stroke-width:0.37390316" />
  <rect
     style="fill:#ffffff;fill-opacity:1;stroke:#000000;stroke-width:0.37390316"
     id="rect3078"
     width="4.7752547"
     height="4.2515168"
     x="17.263798"
     y="19.915873"
     ry="0.92424285" />
  <rect
     ry="0.92424285"
     y="27.661089"
     x="14.050356"
     height="4.2515168"
     width="4.7752547"
     id="rect3080"
     style="fill:#ffffff;fill-opacity:1;stroke:#000000;stroke-width:0.37390316" />
  <rect
     style="fill:#ffffff;fill-opacity:1;stroke:#000000;stroke-width:0.37390316"
     id="rect3082"
     width="4.7752547"
     height="4.2515168"
     x="34.97892"
     y="27.743484"
     ry="0.92424285" />
  <rect
     style="fill:#ffffff;fill-opacity:1;stroke:#000000;stroke-width:0.37390316"
     id="rect3086"
     width="4.7752547"
     height="4.2515168"
     x="32.095062"
     y="35.076725"
     ry="0.92424285" />
  <rect
     ry="0.92424285"
     y="35.159119"
     x="17.510984"
     height="4.2515168"
     width="4.7752547"
     id="rect3088"
     style="fill:#ffffff;fill-opacity:1;stroke:#000000;stroke-width:0.37390316" />
  <rect
     ry="0.92424285"
     y="38.702141"
     x="24.761827"
     height="4.2515168"
     width="4.7752547"
     id="rect3092"
     style="fill:#ffffff;fill-opacity:1;stroke:#000000;stroke-width:0.37390316" />
</svg>
