<?xml version="1.0" encoding="UTF-8" standalone="no"?>
<svg
   xmlns:dc="http://purl.org/dc/elements/1.1/"
   xmlns:cc="http://creativecommons.org/ns#"
   xmlns:rdf="http://www.w3.org/1999/02/22-rdf-syntax-ns#"
   xmlns:svg="http://www.w3.org/2000/svg"
   xmlns="http://www.w3.org/2000/svg"
   xmlns:sodipodi="http://sodipodi.sourceforge.net/DTD/sodipodi-0.dtd"
   xmlns:inkscape="http://www.inkscape.org/namespaces/inkscape"
   enable-background="new 0 0 58.5 55"
   height="55px"
   version="1.1"
   viewBox="0 0 58.5 55"
   width="58.5px"
   x="0px"
   xml:space="preserve"
   y="0px"
   id="svg2"
   inkscape:version="0.48.4 r9939"
   sodipodi:docname="html.svg"><metadata
     id="metadata35"><rdf:RDF><cc:Work
         rdf:about=""><dc:format>image/svg+xml</dc:format><dc:type
           rdf:resource="http://purl.org/dc/dcmitype/StillImage" /><dc:title /></cc:Work></rdf:RDF></metadata><defs
     id="defs33" /><sodipodi:namedview
     pagecolor="#ffffff"
     bordercolor="#666666"
     borderopacity="1"
     objecttolerance="10"
     gridtolerance="10"
     guidetolerance="10"
     inkscape:pageopacity="0"
     inkscape:pageshadow="2"
     inkscape:window-width="1366"
     inkscape:window-height="707"
     id="namedview31"
     showgrid="false"
     inkscape:zoom="4.2909091"
     inkscape:cx="5.8976196"
     inkscape:cy="24.496816"
     inkscape:window-x="0"
     inkscape:window-y="0"
     inkscape:window-maximized="1"
     inkscape:current-layer="svg2" /><polygon
     style="fill:#ffffff;stroke:#000000;stroke-width:3.50000000000000000"
     points="10.932,48.914 10.932,6.088 31.874,6.088 43.818,18.027 43.818,48.914 "
     id="polygon3058"
     transform="translate(1.4330449,1.1642542)" /><polyline
     style="fill:none;stroke:#000000;stroke-width:3.50000000000000000"
     points="43.818,18.027 31.874,18.027 31.874,6.088    "
     id="polyline3060"
     transform="translate(0.26779047,2.7956105)" /><circle
     cx="29.122999"
     cy="28.4"
     r="6.4689999"
     id="circle19-5"
     d="m 35.591999,28.4 c 0,3.57273 -2.89627,6.468999 -6.469,6.468999 -3.57273,0 -6.469,-2.896269 -6.469,-6.468999 0,-3.57273 2.89627,-6.469 6.469,-6.469 3.57273,0 6.469,2.89627 6.469,6.469 z"
     sodipodi:cx="29.122999"
     sodipodi:cy="28.4"
     sodipodi:rx="6.4689999"
     sodipodi:ry="6.4689999"
     style="fill:#ffffff;fill-opacity:1;stroke:#000000"
     transform="matrix(1.7203268,0,0,1.7203268,-21.435822,-13.667463)" /><path
     style="fill:#ffffff;fill-opacity:1;stroke:#000000;stroke-width:1.67731868999999967"
     inkscape:connector-curvature="0"
     id="path23-7"
     d="m 28.666976,24.062744 c 0,0 6.186295,5.111091 6.186295,11.168362 0,6.060711 -6.186295,11.087506 -6.186295,11.087506" /><path
     style="fill:#ffffff;fill-opacity:1;stroke:#000000;stroke-width:1.67731868999999967"
     inkscape:connector-curvature="0"
     id="path25-9"
     d="m 28.666976,24.062744 c 0,0 -6.26543,4.693052 -6.26543,11.168362 0,6.47703 6.26543,11.087506 6.26543,11.087506" /><line
     style="fill:none;stroke:#000000;stroke-width:1.67731868999999989"
     id="line27-4"
     y2="46.318615"
     y1="24.062742"
     x2="28.666977"
     x1="28.666977" /><line
     style="fill:none;stroke:#000000;stroke-width:1.67731868999999989"
     id="line29-0"
     y2="35.190678"
     y1="35.190678"
     x2="39.560135"
     x1="17.30427" /></svg>