<?xml version="1.0" encoding="UTF-8" standalone="no"?>
<svg
   xmlns:dc="http://purl.org/dc/elements/1.1/"
   xmlns:cc="http://creativecommons.org/ns#"
   xmlns:rdf="http://www.w3.org/1999/02/22-rdf-syntax-ns#"
   xmlns:svg="http://www.w3.org/2000/svg"
   xmlns="http://www.w3.org/2000/svg"
   xmlns:sodipodi="http://sodipodi.sourceforge.net/DTD/sodipodi-0.dtd"
   xmlns:inkscape="http://www.inkscape.org/namespaces/inkscape"
   enable-background="new 0 0 55.125 55"
   height="40"
   version="1.1"
   viewBox="0 0 40 40"
   width="40"
   x="0px"
   xml:space="preserve"
   y="0px"
   id="svg2"
   inkscape:version="0.48.4 r9939"
   sodipodi:docname="new-folder.svg"><metadata
     id="metadata11"><rdf:RDF><cc:Work
         rdf:about=""><dc:format>image/svg+xml</dc:format><dc:type
           rdf:resource="http://purl.org/dc/dcmitype/StillImage" /></cc:Work></rdf:RDF></metadata><defs
     id="defs9" /><sodipodi:namedview
     pagecolor="#ffffff"
     bordercolor="#666666"
     borderopacity="1"
     objecttolerance="10"
     gridtolerance="10"
     guidetolerance="10"
     inkscape:pageopacity="0"
     inkscape:pageshadow="2"
     inkscape:window-width="1366"
     inkscape:window-height="707"
     id="namedview7"
     showgrid="false"
     inkscape:zoom="8.5818181"
     inkscape:cx="5.7599729"
     inkscape:cy="23.748435"
     inkscape:window-x="0"
     inkscape:window-y="0"
     inkscape:window-maximized="1"
     inkscape:current-layer="svg2" /><path
     id="path4"
     style="fill:none;stroke:#ffffff;stroke-width:2.23581004000000005;stroke-linecap:round;stroke-linejoin:round"
     d="m 5.9526508,10.547063 3.7263496,-3.7263507 7.4526996,0 3.72635,3.7263507 14.9054,0 0,23.10337 -29.8107992,0 z"
     inkscape:connector-curvature="0" /><path
     style="fill:#ffffff;fill-opacity:1;display:inline"
     inkscape:connector-curvature="0"
     id="path5-2"
     display="inline"
     d="m 26.517478,17.299626 c -2.740068,-2.74038 -7.181416,-2.739133 -9.919613,-6.24e-4 -2.740692,2.740693 -2.741004,7.180793 -6.24e-4,9.921173 2.74038,2.740068 7.180169,2.739757 9.92086,-9.35e-4 2.738198,-2.738509 2.739757,-7.179545 -6.23e-4,-9.919614 z m -3.959054,8.455896 c -6.24e-4,0.553064 -0.448313,1.002623 -1.002,1.002 -0.277155,3.12e-4 -0.527811,-0.111922 -0.709256,-0.293367 -0.181445,-0.181133 -0.293055,-0.431789 -0.293055,-0.707698 l 0,-2.539606 h -2.539606 c -0.27622,-3.11e-4 -0.526564,-0.111922 -0.708009,-0.293055 -0.181445,-0.181757 -0.293679,-0.432724 -0.293679,-0.709568 0,-0.552752 0.448624,-1.001688 1.002935,-1.001064 h 2.538671 v -2.538672 c -9.36e-4,-0.553687 0.448312,-1.002935 1.001375,-1.002935 0.553064,0 1.003247,0.448312 1.002312,1.002312 l 3.12e-4,2.539295 2.539606,3.12e-4 c 0.553376,-0.0016 1.001376,0.448312 1.001688,1.001687 6.24e-4,0.553376 -0.449248,1.002 -1.002312,1.002312 h -2.53867 v 2.538047 z" /></svg>