<?xml version="1.0" encoding="UTF-8" standalone="no"?>
<svg
   xmlns:dc="http://purl.org/dc/elements/1.1/"
   xmlns:cc="http://creativecommons.org/ns#"
   xmlns:rdf="http://www.w3.org/1999/02/22-rdf-syntax-ns#"
   xmlns:svg="http://www.w3.org/2000/svg"
   xmlns="http://www.w3.org/2000/svg"
   xmlns:sodipodi="http://sodipodi.sourceforge.net/DTD/sodipodi-0.dtd"
   xmlns:inkscape="http://www.inkscape.org/namespaces/inkscape"
   enable-background="new 0 0 55 55"
   height="55px"
   version="1.1"
   viewBox="0 0 55 55"
   width="55px"
   x="0px"
   xml:space="preserve"
   y="0px"
   id="svg3054"
   inkscape:version="0.48.4 r9939"
   sodipodi:docname="new-file.svg"><metadata
     id="metadata3067"><rdf:RDF><cc:Work
         rdf:about=""><dc:format>image/svg+xml</dc:format><dc:type
           rdf:resource="http://purl.org/dc/dcmitype/StillImage" /><dc:title /></cc:Work></rdf:RDF></metadata><defs
     id="defs3065" /><sodipodi:namedview
     pagecolor="#ffffff"
     bordercolor="#666666"
     borderopacity="1"
     objecttolerance="10"
     gridtolerance="10"
     guidetolerance="10"
     inkscape:pageopacity="0"
     inkscape:pageshadow="2"
     inkscape:window-width="1366"
     inkscape:window-height="707"
     id="namedview3063"
     showgrid="false"
     showguides="true"
     inkscape:guide-bbox="true"
     inkscape:zoom="5.6568542"
     inkscape:cx="-21.803378"
     inkscape:cy="39.096133"
     inkscape:window-x="0"
     inkscape:window-y="0"
     inkscape:window-maximized="1"
     inkscape:current-layer="svg3054" /><polygon
     style="fill:none;stroke:#ffffff;stroke-width:3.49973925000000019;stroke-opacity:1;stroke-miterlimit:4;stroke-dasharray:none"
     id="polygon9"
     points="10.932,48.914 10.932,6.088 31.874,6.088 43.818,18.027 43.818,48.914 "
     transform="matrix(1.1863741,0,0,1.1863741,-4.740496,-4.9998397)" /><polyline
     style="fill:none;stroke:#feffff;stroke-width:3.50000000000000000;stroke-opacity:1"
     id="polyline11"
     points="43.818,18.027 31.874,18.027 31.874,6.088    "
     transform="matrix(1.1863741,0,0,1.1863741,-4.740496,-4.9998397)" /><path
     style="fill:#ffffff;fill-opacity:1;display:inline"
     inkscape:connector-curvature="0"
     id="path5-2-4"
     display="inline"
     d="m 36.28376,25.682335 c -4.569838,-4.570358 -11.977041,-4.568278 -16.543758,-10e-4 -4.570878,4.57088 -4.571399,11.976001 -0.001,16.546359 4.570358,4.569838 11.974961,4.56932 16.545838,-0.0016 4.566719,-4.567238 4.569319,-11.97392 -0.001,-16.54376 z m -6.602841,14.102597 c -10e-4,0.92239 -0.747689,1.672157 -1.671118,1.671118 -0.462235,5.2e-4 -0.880274,-0.186662 -1.182885,-0.489273 -0.302611,-0.30209 -0.488752,-0.72013 -0.488752,-1.180286 l 0,-4.235511 h -4.235511 c -0.460675,-5.18e-4 -0.878194,-0.186661 -1.180805,-0.488752 -0.302611,-0.303131 -0.489793,-0.721689 -0.489793,-1.183405 0,-0.92187 0.748207,-1.670598 1.672678,-1.669557 h 4.233951 v -4.233953 c -0.0016,-0.92343 0.747687,-1.672678 1.670076,-1.672678 0.92239,0 1.673198,0.747687 1.671638,1.671639 l 5.21e-4,4.234992 4.23551,5.2e-4 c 0.922911,-0.0027 1.670078,0.747687 1.670598,1.670596 10e-4,0.922911 -0.749248,1.671119 -1.671638,1.671639 h -4.23395 v 4.232911 z" /></svg>