<?xml version="1.0" encoding="UTF-8" standalone="no"?>
<svg
   xmlns:dc="http://purl.org/dc/elements/1.1/"
   xmlns:cc="http://creativecommons.org/ns#"
   xmlns:rdf="http://www.w3.org/1999/02/22-rdf-syntax-ns#"
   xmlns:svg="http://www.w3.org/2000/svg"
   xmlns="http://www.w3.org/2000/svg"
   xmlns:sodipodi="http://sodipodi.sourceforge.net/DTD/sodipodi-0.dtd"
   xmlns:inkscape="http://www.inkscape.org/namespaces/inkscape"
   enable-background="new 0 0 55 55"
   height="55px"
   version="1.1"
   viewBox="0 0 55 55"
   width="55px"
   x="0px"
   xml:space="preserve"
   y="0px"
   id="svg2"
   inkscape:version="0.48.4 r9939"
   sodipodi:docname="pdf.svg"><metadata
     id="metadata23"><rdf:RDF><cc:Work
         rdf:about=""><dc:format>image/svg+xml</dc:format><dc:type
           rdf:resource="http://purl.org/dc/dcmitype/StillImage" /><dc:title /></cc:Work></rdf:RDF></metadata><defs
     id="defs21" /><sodipodi:namedview
     pagecolor="#ffffff"
     bordercolor="#666666"
     borderopacity="1"
     objecttolerance="10"
     gridtolerance="10"
     guidetolerance="10"
     inkscape:pageopacity="0"
     inkscape:pageshadow="2"
     inkscape:window-width="1366"
     inkscape:window-height="707"
     id="namedview19"
     showgrid="false"
     inkscape:zoom="5.6568543"
     inkscape:cx="98.771989"
     inkscape:cy="24.165355"
     inkscape:window-x="0"
     inkscape:window-y="0"
     inkscape:window-maximized="1"
     inkscape:current-layer="svg2"
     inkscape:snap-nodes="false"
     inkscape:object-paths="true"
     inkscape:snap-intersection-paths="true"
     inkscape:object-nodes="true"
     inkscape:snap-bbox="false" /><polygon
     style="fill:#ffffff;stroke:#000000;stroke-width:3.50000000000000000"
     id="polygon9"
     points="10.932,48.914 10.932,6.088 31.874,6.088 43.818,18.027 43.818,48.914 "
     transform="translate(3.4957627,0)" /><polyline
     style="fill:#ffffff;stroke:#000000;stroke-width:3.50000000000000000"
     id="polyline11"
     points="43.818,18.027 31.874,18.027 31.874,6.088    "
     transform="translate(2.5635593,1.1652542)" /><rect
     style="fill:#ffffff;fill-opacity:1;stroke:#000000;stroke-width:3;stroke-miterlimit:4;stroke-dasharray:none"
     id="rect3205"
     width="26.800848"
     height="13.050849"
     x="4.211864"
     y="9.2098236"
     rx="4.9749885" /><path
     inkscape:connector-curvature="0"
     id="path2995"
     style="font-size:10px;font-style:normal;font-weight:bold;line-height:125%;letter-spacing:0px;word-spacing:0px;fill:#000000;fill-opacity:1;stroke:none;font-family:Sans;-inkscape-font-specification:Sans Bold"
     d="m 6.9942401,11.940967 3.1201169,0 c 0.92773,7e-6 1.638992,0.206713 2.133789,0.620117 0.498041,0.410163 0.747063,0.9961 0.74707,1.757813 -7e-6,0.764978 -0.249029,1.35417 -0.74707,1.767578 -0.494797,0.410159 -1.206059,0.615237 -2.133789,0.615234 l -1.2402341,0 0,2.529297 -1.8798828,0 0,-7.290039 m 1.8798828,1.362305 0,2.036133 1.040039,0 c 0.3645791,3e-6 0.6461541,-0.08789 0.8447271,-0.263672 0.198562,-0.179032 0.297846,-0.431311 0.297851,-0.756836 -5e-6,-0.325516 -0.09929,-0.576167 -0.297851,-0.751953 -0.198573,-0.175776 -0.480148,-0.263666 -0.8447271,-0.263673 l -1.040039,0" /><path
     inkscape:connector-curvature="0"
     id="path2997"
     style="font-size:10px;font-style:normal;font-weight:bold;line-height:125%;letter-spacing:0px;word-spacing:0px;fill:#000000;fill-opacity:1;stroke:none;font-family:Sans;-inkscape-font-specification:Sans Bold"
     d="m 16.198341,13.361866 0,4.448241 0.673828,0 c 0.768225,2e-6 1.354162,-0.190428 1.757813,-0.571289 0.406895,-0.380856 0.610346,-0.934242 0.610352,-1.660156 -6e-6,-0.722651 -0.201829,-1.272781 -0.605469,-1.65039 -0.403651,-0.377599 -0.991215,-0.566401 -1.762696,-0.566406 l -0.673828,0 m -1.879882,-1.420899 1.982421,0 c 1.106767,7e-6 1.930334,0.07976 2.470704,0.239258 0.543613,0.156257 1.009108,0.423184 1.396484,0.800781 0.34179,0.328782 0.595696,0.708014 0.761719,1.137694 0.166008,0.429694 0.249015,0.916347 0.249023,1.459961 -8e-6,0.550134 -0.08301,1.04167 -0.249023,1.47461 -0.166023,0.429689 -0.419929,0.80892 -0.761719,1.137695 -0.390632,0.377605 -0.859381,0.646159 -1.40625,0.805664 -0.54688,0.15625 -1.367192,0.234375 -2.460938,0.234375 l -1.982421,0 0,-7.290039" /><path
     inkscape:connector-curvature="0"
     id="path2999"
     style="font-size:10px;font-style:normal;font-weight:bold;line-height:125%;letter-spacing:0px;word-spacing:0px;fill:#000000;fill-opacity:1;stroke:none;font-family:Sans;-inkscape-font-specification:Sans Bold"
     d="m 22.61924,11.940967 5.073242,0 0,1.420899 -3.193359,0 0,1.357421 3.002929,0 0,1.420898 -3.002929,0 0,3.090821 -1.879883,0 0,-7.290039" /><path
     sodipodi:type="star"
     style="fill:#ffffff;fill-rule:evenodd;stroke:#000000;stroke-width:1px;stroke-linecap:butt;stroke-linejoin:miter;stroke-opacity:1"
     id="path3367"
     sodipodi:sides="3"
     sodipodi:cx="-98.580505"
     sodipodi:cy="19.110168"
     sodipodi:r1="15.335383"
     sodipodi:r2="7.6676917"
     sodipodi:arg1="-0.2929124"
     sodipodi:arg2="0.75428515"
     inkscape:flatsided="true"
     inkscape:rounded="-0.28"
     inkscape:randomized="0"
     d="m -83.898302,14.682202 c -2.147449,-7.12049 -25.428828,17.656611 -18.188578,19.357111 7.240254,1.700499 -2.57666,-30.8503136 -7.66946,-25.4303227 -5.0928,5.4199907 28.005488,13.1937027 25.858038,6.0732117 z"
     inkscape:transform-center-x="-0.63949326"
     inkscape:transform-center-y="-6.3722688"
     transform="matrix(0.35646604,-0.77477054,0.7339345,0.11249894,53.063946,-41.749925)" /></svg>