<?xml version="1.0" encoding="UTF-8" standalone="no"?>
<svg
   xmlns:dc="http://purl.org/dc/elements/1.1/"
   xmlns:cc="http://creativecommons.org/ns#"
   xmlns:rdf="http://www.w3.org/1999/02/22-rdf-syntax-ns#"
   xmlns:svg="http://www.w3.org/2000/svg"
   xmlns="http://www.w3.org/2000/svg"
   xmlns:sodipodi="http://sodipodi.sourceforge.net/DTD/sodipodi-0.dtd"
   xmlns:inkscape="http://www.inkscape.org/namespaces/inkscape"
   enable-background="new 0 0 55 55"
   height="55px"
   id="Layer_1"
   version="1.1"
   viewBox="0 0 55 55"
   width="55px"
   x="0px"
   xml:space="preserve"
   y="0px"
   inkscape:version="0.48.4 r9939"
   sodipodi:docname="save-as.svg"><metadata
     id="metadata36"><rdf:RDF><cc:Work
         rdf:about=""><dc:format>image/svg+xml</dc:format><dc:type
           rdf:resource="http://purl.org/dc/dcmitype/StillImage" /><dc:title /></cc:Work></rdf:RDF></metadata><defs
     id="defs34" /><sodipodi:namedview
     pagecolor="#ffffff"
     bordercolor="#666666"
     borderopacity="1"
     objecttolerance="10"
     gridtolerance="10"
     guidetolerance="10"
     inkscape:pageopacity="0"
     inkscape:pageshadow="2"
     inkscape:window-width="1366"
     inkscape:window-height="707"
     id="namedview32"
     showgrid="false"
     inkscape:zoom="4.2909091"
     inkscape:cx="-9.3220338"
     inkscape:cy="27.5"
     inkscape:window-x="0"
     inkscape:window-y="0"
     inkscape:window-maximized="1"
     inkscape:current-layer="Layer_1" /><path
     d="m 6.736,49.002 h 24.52 c 2.225,0 3.439,-1.447 3.439,-3.441 v -27.28 c 0,-1.73 -1.732,-3.441 -3.439,-3.441 h -4.389"
     id="path10"
     inkscape:connector-curvature="0"
     style="fill:none;stroke:#ffffff;stroke-width:3.50000000000000000;stroke-linecap:round;stroke-linejoin:round" /><path
     d="m 26.867,38.592 c 0,1.836 -1.345,3.201 -3.441,4.047 L 6.736,49.002 V 14.84 l 16.69,-8.599 c 2.228,-0.394 3.441,0.84 3.441,2.834 v 29.517 z"
     id="path16"
     inkscape:connector-curvature="0"
     style="fill:none;stroke:#ffffff;stroke-width:3.50000000000000000;stroke-linecap:round;stroke-linejoin:round" /><path
     d="m 9.424,42.607 c 0,0 -1.351,-0.543 -2.702,-0.543 -1.351,0 -2.703,0.543 -2.703,0.543"
     id="path18"
     inkscape:connector-curvature="0"
     style="fill:#000000;stroke:#ffffff;stroke-width:2.25000000000000000;stroke-linecap:round;stroke-linejoin:round" /><path
     d="m 9.424,32.006 c 0,0 -1.239,-0.543 -2.815,-0.543 -1.577,0 -2.59,0.543 -2.59,0.543"
     id="path20"
     inkscape:connector-curvature="0"
     style="fill:#000000;stroke:#ffffff;stroke-width:2.25000000000000000;stroke-linecap:round;stroke-linejoin:round" /><path
     d="m 9.424,21.678 c 0,0 -1.125,-0.544 -2.927,-0.544 -1.802,0 -2.478,0.544 -2.478,0.544"
     id="path22"
     inkscape:connector-curvature="0"
     style="fill:#000000;stroke:#ffffff;stroke-width:2.25000000000000000;stroke-linecap:round;stroke-linejoin:round" /><line
     x1="13.209"
     x2="13.209"
     y1="46.533001"
     y2="11.505"
     id="line24"
     style="fill:#000000;stroke:#ffffff;stroke-width:2.25000000000000000;stroke-linecap:round;stroke-linejoin:round" /><line
     style="fill:#000000;stroke:#ffffff;stroke-width:3.50000000000000000;stroke-linecap:round;stroke-linejoin:round"
     id="line28"
     y2="4.9169998"
     y1="16.188"
     x2="52.441002"
     x1="41.169998" /><polyline
     style="fill:none;stroke:#ffffff;stroke-width:3.50000000000000000;stroke-linecap:round;stroke-linejoin:round"
     id="polyline30"
     points="     51.562,15.306 41.17,16.188 42.053,5.794    " /></svg>