<?xml version="1.0" encoding="UTF-8" standalone="no"?>
<svg
   xmlns:dc="http://purl.org/dc/elements/1.1/"
   xmlns:cc="http://creativecommons.org/ns#"
   xmlns:rdf="http://www.w3.org/1999/02/22-rdf-syntax-ns#"
   xmlns:svg="http://www.w3.org/2000/svg"
   xmlns="http://www.w3.org/2000/svg"
   xmlns:sodipodi="http://sodipodi.sourceforge.net/DTD/sodipodi-0.dtd"
   xmlns:inkscape="http://www.inkscape.org/namespaces/inkscape"
   enable-background="new 0 0 55 55"
   height="55px"
   version="1.1"
   viewBox="0 0 55 55"
   width="55px"
   x="0px"
   xml:space="preserve"
   y="0px"
   id="svg2"
   inkscape:version="0.48.4 r9939"
   sodipodi:docname="video.svg"><metadata
     id="metadata29"><rdf:RDF><cc:Work
         rdf:about=""><dc:format>image/svg+xml</dc:format><dc:type
           rdf:resource="http://purl.org/dc/dcmitype/StillImage" /><dc:title></dc:title></cc:Work></rdf:RDF></metadata><defs
     id="defs27" /><sodipodi:namedview
     pagecolor="#ffffff"
     bordercolor="#666666"
     borderopacity="1"
     objecttolerance="10"
     gridtolerance="10"
     guidetolerance="10"
     inkscape:pageopacity="0"
     inkscape:pageshadow="2"
     inkscape:window-width="1366"
     inkscape:window-height="707"
     id="namedview25"
     showgrid="false"
     inkscape:zoom="4.2909091"
     inkscape:cx="27.5"
     inkscape:cy="25.402542"
     inkscape:window-x="0"
     inkscape:window-y="0"
     inkscape:window-maximized="1"
     inkscape:current-layer="svg2" /><path
     style="fill:#ffffff;display:inline"
     inkscape:connector-curvature="0"
     id="path13"
     display="inline"
     d="m 27.502023,15.440973 c -14.16396,0 -25.9637857,14.125252 -25.9637857,14.125252 0,0 11.7998257,14.193734 25.9637857,14.184802 14.163959,-0.01191 25.96974,-14.202667 25.96974,-14.202667 0,0 -11.802804,-14.116319 -25.96974,-14.107387 z m 0,24.087961 c -5.484552,0 -9.929957,-4.448382 -9.929957,-9.932934 0,-5.475619 4.445405,-9.932934 9.929957,-9.932934 5.475619,0 9.924001,4.457315 9.924001,9.932934 0.003,5.484552 -4.445405,9.932934 -9.924001,9.932934 z" /><circle
     style="fill:#ffffff;display:inline"
     sodipodi:ry="1.5140001"
     sodipodi:rx="1.5140001"
     sodipodi:cy="29.597"
     sodipodi:cx="27.504999"
     id="circle15"
     r="1.5140001"
     display="inline"
     cy="29.597"
     cx="27.504999"
     transform="matrix(2.9774983,0,0,2.9774983,-54.391091,-58.52604)" /></svg>